<?xml version="1.0" encoding="UTF-8" standalone="no"?>
<!DOCTYPE svg PUBLIC "-//W3C//DTD SVG 1.1//EN" "http://www.w3.org/Graphics/SVG/1.1/DTD/svg11.dtd">
<svg width="100%" height="100%" viewBox="0 0 105 33" version="1.1" xmlns="http://www.w3.org/2000/svg" xmlns:xlink="http://www.w3.org/1999/xlink" xml:space="preserve" xmlns:serif="http://www.serif.com/" style="fill-rule:evenodd;clip-rule:evenodd;stroke-linejoin:round;stroke-miterlimit:2;">
    <g>
        <g transform="matrix(1.09936,0,0,1.09936,0.238644,5.46007)">
            <g id="Trazado_1" transform="matrix(0.672849,0,0,0.672849,-670.502,-260.63)">
                <path d="M1052.18,395.625C1052.19,395.168 1051.81,394.787 1051.36,394.78L1049.43,394.78C1049.13,394.781 1048.86,394.948 1048.71,395.214L1045.24,401.654L1045.06,402.006L1044.86,401.654C1044.86,401.654 1042.29,396.803 1041.44,395.228C1041.3,394.954 1041.02,394.781 1040.71,394.779L1038.81,394.779C1038.34,394.786 1037.96,395.176 1037.96,395.645L1037.96,408.8C1037.96,409.275 1038.34,409.671 1038.82,409.678L1040.12,409.678C1040.59,409.671 1040.98,409.275 1040.97,408.8L1040.97,400.309L1041.05,400.288C1041.17,400.523 1041.32,400.793 1041.5,401.097L1043.98,405.657C1044.16,405.918 1044.47,406.066 1044.79,406.051L1045.37,406.051C1045.69,406.066 1045.99,405.917 1046.18,405.657L1048.66,401.097C1048.83,400.793 1048.98,400.523 1049.1,400.288L1049.18,400.309L1049.18,408.821C1049.18,409.277 1049.55,409.657 1050,409.664L1051.37,409.664C1051.82,409.658 1052.19,409.284 1052.19,408.832C1052.19,408.828 1052.19,408.825 1052.19,408.821L1052.19,395.625L1052.18,395.625Z" style="fill:rgb(31,36,41);fill-rule:nonzero;"/>
            </g>
            <g id="Trazado_11" serif:id="Trazado_1" transform="matrix(0.672849,0,0,0.672849,-620.931,-260.63)">
                <path d="M1052.18,395.625C1052.19,395.168 1051.81,394.787 1051.36,394.78L1049.43,394.78C1049.13,394.781 1048.86,394.948 1048.71,395.214L1045.24,401.654L1045.06,402.006L1044.86,401.654C1044.86,401.654 1042.29,396.803 1041.44,395.228C1041.3,394.954 1041.02,394.781 1040.71,394.779L1038.81,394.779C1038.34,394.786 1037.96,395.176 1037.96,395.645L1037.96,408.8C1037.96,409.275 1038.34,409.671 1038.82,409.678L1040.12,409.678C1040.59,409.671 1040.98,409.275 1040.97,408.8L1040.97,400.309L1041.05,400.288C1041.17,400.523 1041.32,400.793 1041.5,401.097L1043.98,405.657C1044.16,405.918 1044.47,406.066 1044.79,406.051L1045.37,406.051C1045.69,406.066 1045.99,405.917 1046.18,405.657L1048.66,401.097C1048.83,400.793 1048.98,400.523 1049.1,400.288L1049.18,400.309L1049.18,408.821C1049.18,409.277 1049.55,409.657 1050,409.664L1051.37,409.664C1051.82,409.658 1052.19,409.284 1052.19,408.832C1052.19,408.828 1052.19,408.825 1052.19,408.821L1052.19,395.625L1052.18,395.625Z" style="fill:rgb(31,36,41);fill-rule:nonzero;"/>
            </g>
            <g id="Trazado_2" transform="matrix(0.672849,0,0,0.672849,-705.092,-260.63)">
                <path d="M1114.56,395.724C1113.56,395.087 1112.4,394.758 1111.21,394.781L1106.98,394.781C1106.53,394.787 1106.17,395.154 1106.17,395.599C1106.17,395.603 1106.17,395.606 1106.17,395.61L1106.17,408.828C1106.17,408.832 1106.17,408.835 1106.17,408.839C1106.17,409.288 1106.54,409.658 1106.98,409.664L1108.46,409.664C1108.91,409.658 1109.28,409.288 1109.28,408.839C1109.28,408.835 1109.28,408.832 1109.28,408.828L1109.28,403.86L1111.41,403.86C1112.05,403.842 1112.67,403.723 1113.27,403.507C1115.03,402.901 1116.16,401.172 1116.01,399.32C1116.01,397.551 1115.53,396.351 1114.56,395.72M1112.31,400.726C1111.96,400.993 1111.52,401.132 1111.07,401.12L1109.27,401.12L1109.27,397.5L1111.07,397.5C1111.52,397.487 1111.96,397.628 1112.31,397.9C1112.7,398.267 1112.89,398.793 1112.83,399.32C1112.89,399.844 1112.7,400.368 1112.31,400.73" style="fill:rgb(31,36,41);fill-rule:nonzero;"/>
            </g>
            <g id="Trazado_3" transform="matrix(0.672849,0,0,0.672849,-753.136,-260.63)">
                <path d="M1209.81,395.628L1209.77,403.94C1209.54,403.51 1209.3,403.094 1209.03,402.692L1204.28,395.162C1204.13,394.926 1203.87,394.781 1203.6,394.78L1201.73,394.78C1201.28,394.787 1200.91,395.164 1200.91,395.617L1200.91,408.825C1200.91,409.279 1201.28,409.658 1201.73,409.667L1202.75,409.667C1202.83,409.667 1202.91,409.667 1202.99,409.658L1203.16,409.658C1203.61,409.651 1203.98,409.272 1203.98,408.817L1203.98,401.862C1203.98,401.227 1203.96,400.748 1203.94,400.424L1204.02,400.403C1204.24,400.833 1204.49,401.249 1204.76,401.651L1209.61,409.277C1209.76,409.513 1210.02,409.658 1210.29,409.659L1212.05,409.659C1212.5,409.653 1212.87,409.28 1212.87,408.828C1212.87,408.824 1212.87,408.821 1212.87,408.817L1212.87,395.632C1212.88,395.171 1212.5,394.787 1212.04,394.78L1210.63,394.78C1210.17,394.786 1209.8,395.168 1209.8,395.628" style="fill:rgb(31,36,41);fill-rule:nonzero;"/>
            </g>
            <g id="Trazado_4" transform="matrix(0.672849,0,0,0.672849,-780.134,-260.63)">
                <path d="M1264.25,394.78L1262.98,394.78C1262.69,394.782 1262.41,394.944 1262.27,395.204L1259.78,399.704L1257.31,395.204C1257.17,394.94 1256.89,394.774 1256.59,394.772L1254.98,394.772C1254.53,394.784 1254.16,395.164 1254.16,395.621C1254.16,395.778 1254.2,395.932 1254.28,396.066L1258.15,402.514L1258.15,408.814C1258.14,409.271 1258.52,409.651 1258.97,409.658L1260.47,409.658C1260.92,409.652 1261.29,409.278 1261.29,408.825C1261.29,408.821 1261.29,408.818 1261.29,408.814L1261.29,402.581L1265.16,396.049C1265.24,395.918 1265.29,395.767 1265.29,395.614C1265.29,395.16 1264.92,394.784 1264.46,394.775L1264.25,394.78Z" style="fill:rgb(31,36,41);fill-rule:nonzero;"/>
            </g>
            <g id="Trazado_5" transform="matrix(0.672849,0,0,0.672849,-577.118,-308.952)">
                <path d="M996.528,466.759L989.628,466.759C989.187,466.765 988.828,467.129 988.828,467.57L988.828,467.59L988.828,480.481C988.828,480.485 988.828,480.488 988.828,480.492C988.828,480.937 989.19,481.304 989.635,481.31L996.514,481.31C996.97,481.304 997.341,480.928 997.341,480.472C997.341,480.468 997.341,480.465 997.341,480.461L997.341,479.443C997.347,478.983 996.975,478.6 996.515,478.593L991.935,478.586L991.935,475.22L995.927,475.22C996.395,475.213 996.775,474.823 996.769,474.355L996.769,473.331C996.769,473.327 996.769,473.324 996.769,473.32C996.769,472.872 996.404,472.502 995.956,472.496L991.935,472.496L991.935,469.483L996.505,469.483C996.965,469.477 997.34,469.096 997.34,468.636C997.34,468.632 997.34,468.628 997.34,468.624L997.34,467.6C997.34,467.596 997.34,467.593 997.34,467.589C997.34,467.139 996.974,466.768 996.524,466.762" style="fill:rgb(31,36,41);fill-rule:nonzero;"/>
            </g>
            <g id="Trazado_8" transform="matrix(0.672849,0,0,0.672849,-614.28,-260.739)">
                <path d="M928.712,408.025C927.629,406.816 927.088,404.933 927.088,402.376C927.088,397.457 929.334,394.997 933.825,394.997C934.517,394.999 935.206,395.072 935.883,395.215C936.468,395.322 937.031,395.522 937.553,395.807C937.842,395.977 938.02,396.289 938.02,396.624C938.02,396.835 937.95,397.04 937.82,397.207C937.669,397.5 937.49,397.778 937.285,398.036C937.054,398.309 936.668,398.399 936.341,398.255C935.974,398.109 935.598,397.984 935.217,397.88C934.74,397.776 934.252,397.727 933.764,397.735C932.749,397.659 931.76,398.095 931.132,398.896C930.623,399.723 930.329,400.66 930.271,401.621C930.255,401.878 930.257,402.137 930.275,402.396C930.275,405.547 931.425,407.122 933.724,407.122C934.255,407.131 934.784,407.068 935.298,406.935C935.744,406.823 936.176,406.663 936.588,406.458C937.245,406.109 937.729,406.658 937.962,407.196C938.124,407.41 938.211,407.671 938.211,407.94C938.211,408.412 937.941,408.844 937.516,409.05C936.962,409.328 936.371,409.527 935.761,409.641C935.089,409.768 934.407,409.835 933.723,409.841C931.869,409.994 930.037,409.331 928.71,408.027" style="fill:rgb(31,36,41);fill-rule:nonzero;"/>
            </g>
            <g id="Trazado_9" transform="matrix(0.672849,0,0,0.672849,-639.568,-260.739)">
                <path d="M978.63,407.921C976.402,404.598 976.402,400.237 978.63,396.914C981.301,394.373 985.551,394.373 988.222,396.914C990.436,400.241 990.436,404.594 988.222,407.921C985.551,410.462 981.301,410.462 978.63,407.921M985.872,405.921C986.975,403.72 986.975,401.122 985.872,398.921C985.284,398.169 984.381,397.729 983.426,397.729C982.471,397.729 981.568,398.169 980.98,398.921C979.863,401.119 979.863,403.723 980.98,405.921C981.564,406.679 982.469,407.123 983.426,407.123C984.383,407.123 985.288,406.679 985.872,405.921" style="fill:rgb(31,36,41);fill-rule:nonzero;"/>
            </g>
            <g id="Trazado_10" transform="matrix(0.672849,0,0,0.672849,-725.476,-260.63)">
                <path d="M1147.18,409.665C1146.73,409.655 1146.37,409.281 1146.37,408.83C1146.37,408.737 1146.38,408.643 1146.41,408.555L1150.81,395.348C1150.91,395.013 1151.23,394.783 1151.58,394.78L1153.54,394.78C1153.89,394.783 1154.21,395.012 1154.32,395.347L1158.72,408.555C1158.75,408.643 1158.77,408.736 1158.77,408.829C1158.77,409.28 1158.4,409.653 1157.95,409.662L1156.5,409.662C1156.14,409.659 1155.83,409.425 1155.73,409.086L1154.95,406.646L1150.09,406.646L1149.32,409.086C1149.22,409.427 1148.9,409.663 1148.55,409.666L1147.18,409.666M1154.06,403.856L1152.89,400.091C1152.76,399.647 1152.65,399.195 1152.58,398.737L1152.5,398.737C1152.49,398.821 1152.45,399.009 1152.41,399.298C1152.36,399.569 1152.29,399.835 1152.19,400.091L1150.98,403.856L1154.06,403.856Z" style="fill:rgb(31,36,41);fill-rule:nonzero;"/>
            </g>
        </g>
        <g id="Trazado_7" transform="matrix(1,0,0,1,-876.308,-394.78)">
            <path d="M881.807,427.552L877.064,427.552C876.648,427.547 876.308,427.203 876.308,426.786C876.308,426.783 876.308,426.779 876.308,426.776L876.308,395.557C876.308,395.553 876.308,395.55 876.308,395.546C876.308,395.129 876.648,394.785 877.064,394.78L881.807,394.78C882.223,394.785 882.563,395.129 882.563,395.546C882.563,395.55 882.563,395.553 882.563,395.557L882.563,426.776C882.563,426.779 882.563,426.783 882.563,426.786C882.563,427.203 882.223,427.547 881.807,427.552" style="fill:rgb(255,0,102);fill-rule:nonzero;"/>
        </g>
        <g transform="matrix(1,0,0,1,30,-5)">
            <circle cx="51" cy="25" r="2" style="fill:rgb(255,0,102);"/>
        </g>
    </g>
</svg>
